<?xml version="1.0" standalone="no"?>
<!DOCTYPE svg PUBLIC "-//W3C//DTD SVG 20010904//EN" "http://www.w3.org/TR/2001/REC-SVG-20010904/DTD/svg10.dtd">
<svg version="1.0" xmlns="http://www.w3.org/2000/svg" width="192.000000pt" height="192.000000pt"
        viewBox="0 0 192.000000 192.000000" preserveAspectRatio="xMidYMid meet">
        <metadata>
                Created by potrace 1.16, written by Peter Selinger 2001-2019
        </metadata>
        <g transform="translate(0.000000,192.000000) scale(0.100000,-0.100000)" fill="#ffffff" stroke="none">
                <path d="M602 1678 c-18 -18 -17 -689 1 -741 17 -48 30 -61 55 -53 25 8 38 57
23 85 -6 11 -11 75 -11 144 0 284 -13 548 -27 563 -18 17 -25 18 -41 2z" />
                <path d="M897 1683 c-4 -3 -7 -176 -7 -383 l0 -377 23 -22 c30 -28 53 -19 67
25 10 29 9 39 -4 59 -14 21 -16 69 -16 353 0 242 -3 331 -12 340 -13 13 -41
16 -51 5z" />
                <path d="M1329 1668 c-8 -15 -10 -104 -7 -311 4 -288 4 -289 27 -308 16 -13
28 -16 39 -10 13 8 15 46 13 312 -1 169 -7 311 -12 321 -13 25 -46 23 -60 -4z" />
                <path d="M1035 1568 c-3 -7 -6 -123 -8 -258 l-2 -245 27 -3 c36 -4 36 -5 43
266 7 234 4 252 -37 252 -10 0 -21 -6 -23 -12z" />
                <path d="M1474 1467 c-2 -7 -3 -60 -2 -118 3 -100 4 -104 26 -107 42 -6 49 10
45 105 -5 123 -8 133 -39 133 -13 0 -27 -6 -30 -13z" />
                <path d="M443 1408 c-13 -23 -3 -251 13 -275 28 -45 88 -19 64 27 -6 10 -10
64 -10 120 0 56 -5 110 -10 121 -12 21 -45 25 -57 7z" />
                <path d="M777 1407 c-12 -9 -16 -39 -19 -132 l-3 -120 30 0 c37 0 43 18 44
147 1 85 -1 99 -18 107 -13 7 -23 7 -34 -2z" />
                <path d="M1182 1398 c-8 -8 -12 -48 -12 -115 0 -93 2 -103 21 -113 39 -21 49
2 49 111 0 75 -4 101 -16 113 -19 19 -26 20 -42 4z" />
                <path d="M1505 1048 c-11 -6 -25 -14 -31 -17 -56 -30 -192 -131 -223 -164 -57
-62 -134 -166 -158 -214 -12 -23 -26 -50 -32 -60 -9 -17 -30 -66 -60 -138
l-12 -29 -21 34 c-114 189 -151 238 -243 316 -44 38 -107 95 -141 127 -33 31
-66 57 -73 57 -8 0 -30 8 -50 19 -20 10 -55 27 -79 37 -39 16 -44 16 -58 2
-29 -29 -8 -52 84 -93 51 -23 106 -57 132 -81 25 -23 65 -58 90 -78 59 -49
152 -147 186 -199 15 -23 35 -53 44 -67 10 -14 35 -63 56 -108 28 -61 45 -84
61 -88 28 -7 49 8 57 41 8 33 106 246 128 279 7 11 27 40 43 66 51 79 135 167
192 202 30 18 67 42 81 53 15 11 44 29 65 39 31 16 37 24 35 45 -3 29 -38 38
-73 19z" />
        </g>
</svg>